# xmcd CD database file
#
# Track frame offsets:
#	150
#	11490
#	24247
#	37440
#	50640
#	62790
#	76667
#	89695
#	102990
#	117087
#	129687
#	142362
#	155565
#	168690
#	183165
#	194460
#	208260
#	222060
#	235787
#	248010
#	260612
#	272987
#
# Disc length: 3812 seconds
#
# Revision: 1
# Processed by: cddbd v1.5.2PL0 Copyright (c) Steve Scherf et al.
# Submitted via: jetAudio 5
#
DISCID=4c0ee216
DTITLE=Històries Del Jazz A Catalunya - Barcelona Jazz Años 20-30-40 Vo
DTITLE=l. 1
DYEAR=1929
DGENRE=JAZZ
TTITLE0=Sam Wooding and Chocolate Kiddies - Tiger Rag
TTITLE1=Don Byas y Las Estrellas del Ritmo y la Melodia - Jam Sesion_Ja
TTITLE1=nine
TTITLE2=Orquesta Gran Casino_Intermedio en Riff
TTITLE3=Don Byas con Luis Rovira y Su Orquesta_Riffin' and Jivin'
TTITLE4=Bernard Hilda y Su Orquesta_Soñar en ti
TTITLE5=George Johnson y Su Orquesta_Cherokee
TTITLE6=Miuras de Sobré con Machín_Asi te quiero a ti
TTITLE7=Los Clipper's_Hey Ba-Ba-Re-Bop
TTITLE8=Manolo Bel y Sus Muchahchos_Harlem
TTITLE9=Orquesta Martin de la Rosa_Podria ser
TTITLE10=Orquesta Gran Casino_Club Nocturno
TTITLE11=Ramon Evaristo con Bonet de San Pedro_Madre ¿Qué Voy a Hacer?
TTITLE12=Azarola_Improvisaciones Nº 1
TTITLE13=Orquesta Plantación_Frenesí
TTITLE14=José Puertas y Su Quinteto De Hot_Mi Ritmo
TTITLE15=Orquestrina Tzingan Americana de Nic Fusly_Alabama Jubilee
TTITLE16=Orquesta Montoliu_Dulce Sueño
TTITLE17=Emil Hot Five_Loca por el Hot
TTITLE18=Demon's Jazz_Demon's Charleston
TTITLE19=Quiteto Saratoga_Parece Mentira
TTITLE20=Bernard Hilda Y Su Orquesta_Hotel Ritz
TTITLE21=Luis Rovira Y Su Orquesta_Swing Sobre la Marcha
EXTD=YEAR: 1929
EXTT0=
EXTT1=
EXTT2=
EXTT3=
EXTT4=
EXTT5=
EXTT6=
EXTT7=
EXTT8=
EXTT9=
EXTT10=
EXTT11=
EXTT12=
EXTT13=
EXTT14=
EXTT15=
EXTT16=
EXTT17=
EXTT18=
EXTT19=
EXTT20=
EXTT21=
PLAYORDER=
